<svg width="1487" height="278" viewBox="0 0 1487 278" fill="none" xmlns="http://www.w3.org/2000/svg">
<path fillRule="evenodd" clipRule="evenodd" d="M1179.89 0.435226C1018.07 4.7963 903.404 15.1995 743.907 39.9898C612.715 60.3812 525.768 76.95 377.314 109.849C290.019 129.194 255.829 138.14 186.389 159.801C131.699 176.861 97.5219 186.853 65.1537 195.246C16.9804 207.737 0 213.532 0 217.481C0 219.22 1.60492 219.644 2.9847 218.268C4.18138 217.076 10.7339 215.275 50.9774 205.078C84.6676 196.542 109.541 189.678 159.585 175.104C271.855 142.411 282.251 139.933 456.353 104.372C703.204 53.9502 903.667 27.1829 1096.07 18.9531C1278.77 11.1377 1429.22 14.3339 1467.81 26.8491C1474.19 28.9166 1474.22 28.739 1466.96 32.0832C1450.06 39.8674 1412.17 48.8493 1337.3 62.8203C1251.8 78.775 1205.42 86.1802 1066.38 106.073C960.504 121.222 957.958 121.634 818.132 146.357C671.668 172.254 607.17 184.688 519.58 203.912C488.648 210.7 486.045 211.209 447.974 217.918C372.221 231.269 307.169 245.792 243.295 263.614C222.5 269.416 218.749 272.031 224.186 276.935C228.562 280.883 264.888 274.101 355.046 252.504C466.317 225.85 481.984 222.608 545.971 212.995C637.707 199.213 714.175 190.278 778.133 185.868C842.217 181.45 949.377 175.823 1007.41 173.829C1039.82 172.715 1165.35 171.84 1171.61 172.684L1176.48 173.34L1171.94 174.433C1164.04 176.336 1024.03 203.411 962.46 214.94C943.182 218.55 915.347 223.577 900.605 226.11C852.547 234.37 749.442 253.722 731.262 257.894C719.906 260.501 715.925 265.8 721.299 271.156C724.96 274.805 749.525 275.12 802.875 272.205C815.576 271.511 838.957 270.368 854.833 269.665C870.709 268.962 894.437 267.473 907.563 266.355C920.688 265.237 940.358 263.924 951.273 263.439C962.189 262.954 975.944 262.268 981.841 261.915L992.563 261.272L983.078 261.143C970.664 260.975 941.448 259.653 916.688 258.14C887.65 256.365 824.051 256.765 794.631 258.908C791.305 259.15 790.136 259.017 791.06 258.501C792.863 257.496 867.807 243.52 903.079 237.612C1009.67 219.757 1191.9 184.253 1201.04 179.561C1209.14 175.399 1208.53 168.117 1199.77 164.47C1184.08 157.935 1039.34 159.151 909.677 166.907C898.564 167.572 872.585 169.054 851.946 170.201C774.328 174.513 698.049 180.73 669.268 185.09C667.454 185.364 666.182 185.365 666.443 185.092C667.491 183.991 868.334 148.496 946.243 135.644C963.86 132.737 1014.89 125.161 1059.64 118.806C1215.19 96.7216 1251.1 91.0222 1345.13 73.499C1461.24 51.8613 1492.79 41.0371 1486.17 25.1055C1480.65 11.8406 1449.07 5.79755 1361.22 1.20055C1340.2 0.100619 1212.33 -0.439454 1179.89 0.435226Z" fill="black"/>
</svg>
