<svg width="451" height="30" viewBox="0 0 451 30" fill="none" xmlns="http://www.w3.org/2000/svg">
<g clip-path="url(#clip0_1_2)">
<mask id="mask0_1_2" style="mask-type:luminance" maskUnits="userSpaceOnUse" x="0" y="0" width="451" height="30">
<path d="M451 0H0V30H451V0Z" fill="white"/>
</mask>
<g mask="url(#mask0_1_2)">
<mask id="mask1_1_2" style="mask-type:alpha" maskUnits="userSpaceOnUse" x="0" y="0" width="451" height="30">
<path d="M451 0H0V30H451V0Z" fill="#D9D9D9"/>
</mask>
<g mask="url(#mask1_1_2)">
<path d="M15.7559 13.6095C17.0478 14.04 18.1806 14.7581 19.0385 15.8629C20.1624 17.3105 20.6366 19.0114 20.6366 20.8286C20.6366 22.5791 20.2063 24.2248 19.2956 25.7219C18.5331 26.9753 17.5087 28.1295 16.1298 28.7067C14.6988 29.3067 12.923 29.4324 11.3835 29.4324H0.509277V27.8743H1.15818C1.35971 27.8743 2.03982 27.8476 2.1677 27.6552C2.36694 27.3695 2.38844 25.8914 2.38844 25.501V5.5105C2.38844 4.9105 2.40995 4.24383 2.31708 3.65145C2.2933 3.50669 2.23982 3.41717 2.11042 3.34479C1.85162 3.20193 1.44953 3.17336 1.15818 3.17336H0.509277V1.61525H8.04897C8.92395 1.61525 9.7995 1.6286 10.6729 1.68003C11.2699 1.71431 11.8735 1.76385 12.4606 1.88004C13.3972 2.0648 14.2781 2.42859 15.0899 2.92954C16.0027 3.49335 16.7118 4.28574 17.2642 5.19812C17.8878 6.2305 18.1681 7.38286 18.1681 8.58477C18.1681 10.6743 17.2946 12.3371 15.7559 13.6095ZM31.3333 16.4514V23.9886C31.3333 24.6876 31.3578 25.7676 31.6269 26.4114C31.7599 26.7314 31.9517 26.9676 32.2937 27.0629C32.9255 27.2362 33.7255 27.2476 34.3811 27.2476H39.073C39.6728 27.2476 40.272 27.2419 40.8718 27.2114C41.1626 27.1943 41.497 27.1829 41.7803 27.1124C42.0665 27.0419 42.3103 26.901 42.5139 26.6876C42.7822 26.4038 42.9541 25.4248 43.0111 25.0362L43.0937 24.4819H44.5611V29.4324H25.0967V27.9124L25.7078 27.8762C26.0423 27.8572 26.5173 27.8 26.8035 27.6229C26.9468 27.5048 26.9759 26.8114 26.9759 26.6324V5.17336C26.9759 4.68764 26.9647 3.81715 26.7767 3.37334C26.6956 3.20572 25.9083 3.17336 25.7464 3.17336H25.0967V1.61525H43.0878V6.56763H41.6806L41.552 6.08381C41.4562 5.72191 41.0384 4.20193 40.8207 3.98288C40.6452 3.82859 39.6996 3.80001 39.4536 3.80001H31.3333V14.4134H38.8269C39.044 14.4134 39.8245 14.3962 39.9948 14.2991C40.0482 14.2629 40.0541 14.2115 40.0572 14.1505L40.0833 13.5276H41.6138V17.3372H40.1605L40.0661 16.7981C40.0579 16.7524 40.0201 16.5772 39.9792 16.5543C39.8045 16.461 39.2477 16.4514 39.0418 16.4514H31.3333ZM51.4355 27.8648C51.5084 27.8762 51.6176 27.8743 51.6608 27.8743H52.3105V29.4324H47.0684V27.8743H47.7181C48.057 27.8743 48.3923 27.8114 48.6724 27.6095C49.0241 27.3562 49.4686 26.301 49.6321 25.8876L59.4241 1.20956H60.783L70.4116 25.1791L70.4078 25.2457C70.4361 25.3505 70.5223 25.5276 70.561 25.6172C70.7208 25.9886 70.8947 26.3543 71.0687 26.72C71.4068 27.4248 71.8871 27.8743 72.7003 27.8743H73.3499V29.4324H65.8601V27.8743H66.5098C66.5484 27.8743 66.6517 27.8743 66.7075 27.8629V27.861C66.7075 27.5753 66.4911 27.0324 66.3714 26.741C66.298 26.6324 66.2435 26.5143 66.2013 26.3905L66.1893 26.3543L66.1819 26.3181C66.179 26.3086 66.1775 26.2972 66.1752 26.2876L62.5396 17.2248H55.6079L51.8005 26.8343C51.7166 27.0533 51.4869 27.6057 51.4355 27.8648ZM94.6919 26.2705C92.3186 28.4381 89.5028 29.6172 86.2097 29.6172C83.7218 29.6172 81.3469 28.981 79.5145 27.2248C77.6769 25.461 77.0049 23.1181 77.0049 20.6267V4.73716C77.0049 4.48573 76.9775 3.52002 76.8251 3.34288C76.6786 3.20193 75.9079 3.17336 75.702 3.17336H75.0521V1.61525H83.3895V3.17336H82.7391C82.4358 3.17336 81.8106 3.20002 81.5631 3.3905C81.3937 3.52002 81.3625 4.33525 81.3625 4.53905V19.0895C81.3625 21.1391 81.6894 23.6724 83.2877 25.1314C84.5461 26.28 86.0061 26.9162 87.7203 26.9162C90.5665 26.9162 92.8388 25.5543 94.6919 23.4857V5.76955C94.6919 5.3505 94.6579 3.67431 94.4563 3.41145C94.2668 3.20955 93.8995 3.17336 93.6402 3.17336H92.7393V1.61525H101.002V3.13715L100.39 3.17336C100.171 3.18478 99.3603 3.25524 99.2086 3.39429C99.0718 3.54286 99.0495 4.12953 99.0495 4.32382V25.9314C99.0495 26.3238 99.0324 27.0514 99.1401 27.4076C99.1863 27.5486 99.2851 27.6476 99.4055 27.7314C99.5884 27.8572 100.132 27.8743 100.353 27.8743H101.002V29.4324H94.6919V26.2705ZM114.047 3.76383H108.065C107.864 3.76383 107.366 3.76001 107.099 3.80763C107.099 3.81144 107.099 3.81717 107.099 3.82098C107.099 3.98098 107.166 4.21145 107.212 4.36383L107.465 5.20193H105.891L104.124 0.729553H105.734L105.916 1.08191C105.967 1.18286 106.136 1.48193 106.223 1.53526C106.421 1.61717 107.101 1.61525 107.333 1.61525H124.94C125.339 1.61525 125.881 1.61715 126.263 1.51048C126.385 1.47619 126.465 1.27619 126.499 1.17143L126.649 0.729553H128.328L126.562 5.20193H125.03L125.231 4.39429C125.278 4.21143 125.285 3.9962 125.286 3.80382C125.103 3.76572 124.838 3.76383 124.688 3.76383H118.405V25.8191C118.405 26.2419 118.411 27.1048 118.576 27.4819C118.62 27.581 118.705 27.7371 118.815 27.7771C119.083 27.8743 119.568 27.8743 119.855 27.8743H120.505V29.4324H112.021V27.9181L112.626 27.8762C112.847 27.861 113.71 27.7714 113.849 27.6C114.025 27.3753 114.047 26.4934 114.047 26.2019V3.76383ZM147.679 3.17526C147.639 3.17336 147.599 3.17336 147.574 3.17336H146.815V1.61525H152.094V3.12764L151.49 3.17145C151.174 3.19431 150.822 3.26478 150.548 3.43621C150.217 3.64574 149.844 4.18288 149.627 4.5105L143.251 14.1886V26.1333C143.251 26.4552 143.279 27.4038 143.483 27.6495C143.643 27.8457 144.389 27.8743 144.628 27.8743H145.277V29.4324H136.866V27.8324L137.557 27.8762C138.335 27.9257 138.923 27.8248 138.931 26.9295L138.893 26.1676V15.061L132.503 4.52764C132.153 3.9505 131.559 3.13907 130.801 3.17336L130.124 3.20381V1.61525H137.686V3.17336H137.037C136.992 3.17336 136.868 3.17335 136.809 3.19049C136.817 3.33716 137.077 3.77525 137.169 3.92001L141.979 11.8572L147.306 3.77145L147.37 3.71621C147.439 3.65716 147.544 3.44955 147.585 3.36764C147.608 3.32003 147.648 3.24383 147.679 3.17526ZM151.186 27.2038C151.186 26.5105 151.441 25.8971 151.915 25.3943C152.417 24.8591 153.056 24.5924 153.789 24.5924C154.514 24.5924 155.165 24.8419 155.667 25.3733C156.145 25.88 156.39 26.5067 156.39 27.2038C156.39 27.901 156.141 28.5257 155.656 29.0267C155.15 29.5486 154.51 29.8019 153.789 29.8019C153.089 29.8019 152.487 29.5238 151.987 29.0438C151.471 28.5467 151.186 27.9219 151.186 27.2038ZM187.19 27.8648C187.262 27.8762 187.372 27.8743 187.414 27.8743H188.065V29.4324H182.822V27.8743H183.471C183.812 27.8743 184.147 27.8114 184.427 27.6095C184.777 27.3562 185.222 26.301 185.386 25.8876L195.178 1.20956H196.537L206.164 25.1791L206.162 25.2457C206.191 25.3505 206.276 25.5276 206.314 25.6172C206.474 25.9886 206.647 26.3543 206.822 26.72C207.161 27.4248 207.641 27.8743 208.455 27.8743H209.104V29.4324H201.614V27.8743H202.263C202.303 27.8743 202.406 27.8743 202.461 27.8629V27.861C202.461 27.5753 202.246 27.0324 202.126 26.741C202.052 26.6324 201.997 26.5143 201.955 26.3905L201.943 26.3543L201.936 26.3181C201.934 26.3086 201.932 26.2972 201.93 26.2876L198.293 17.2248H191.363L187.555 26.8343C187.469 27.0533 187.241 27.6057 187.19 27.8648ZM227.962 13.6095C229.255 14.04 230.389 14.7581 231.247 15.8629C232.37 17.3105 232.843 19.0114 232.843 20.8286C232.843 22.5791 232.413 24.2248 231.502 25.7219C230.741 26.9753 229.717 28.1295 228.337 28.7067C226.906 29.3067 225.129 29.4324 223.591 29.4324H212.716V27.8743H213.365C213.567 27.8743 214.248 27.8476 214.375 27.6552C214.575 27.3695 214.596 25.8914 214.596 25.501V5.5105C214.596 4.9105 214.617 4.24383 214.524 3.65145C214.501 3.50669 214.448 3.41717 214.316 3.34479C214.059 3.20193 213.656 3.17336 213.365 3.17336H212.716V1.61525H220.257C221.131 1.61525 222.006 1.6286 222.88 1.68003C223.477 1.71431 224.08 1.76385 224.668 1.88004C225.605 2.0648 226.486 2.42859 227.296 2.92954C228.21 3.49335 228.918 4.28574 229.471 5.19812C230.094 6.2305 230.375 7.38286 230.375 8.58477C230.375 10.6743 229.502 12.3371 227.962 13.6095ZM252.619 1.17333C256.242 1.17333 259.551 2.21715 262.2 4.75811C264.737 7.19239 265.943 10.2134 265.943 13.7181C265.943 18.0648 264.629 21.9638 261.669 25.1905C258.642 28.4933 254.716 29.8762 250.297 29.8762C246.638 29.8762 243.395 28.7219 240.817 26.0705C238.354 23.5391 237.119 20.4819 237.119 16.9505C237.119 14.4095 237.801 11.96 238.876 9.6724C240.069 7.13716 241.869 5.09907 244.197 3.55049C246.724 1.86669 249.605 1.17333 252.619 1.17333ZM282.825 20.5924C282.777 20.5333 282.739 20.4686 282.71 20.4L280.288 16.6838L278.28 16.7467H276.788V26.2381C276.788 26.621 276.811 27.3276 277.013 27.6591C277.125 27.8457 277.824 27.8743 278.018 27.8743H278.667V29.4324H270.551V27.9029L271.173 27.8762C271.357 27.8667 272.111 27.8038 272.217 27.6362C272.41 27.3314 272.431 26.3734 272.431 26.0038V4.92191C272.431 4.44382 272.389 3.90478 272.212 3.45716C272.115 3.21335 271.407 3.17716 271.192 3.17336L270.551 3.16382V1.61525H278.705C280.101 1.61525 281.51 1.61143 282.901 1.74667C283.904 1.84572 284.865 2.18477 285.753 2.65715C286.712 3.16572 287.5 3.88192 288.035 4.83621C288.598 5.84192 288.8 6.99429 288.8 8.13525C288.8 9.66667 288.318 11.0743 287.475 12.3429C286.676 13.5467 285.62 14.5105 284.412 15.2838L285.928 17.6152L285.938 17.6286C286.269 18.2076 286.653 18.7581 287.03 19.3086C287.721 20.3162 288.433 21.3124 289.15 22.3048C290.018 23.5086 291.746 25.8629 293.015 26.5676C293.776 26.9886 294.611 27.2857 295.489 27.2857C296.421 27.2857 297.42 26.8153 298.206 26.3448L298.92 25.9181L299.399 27.4895L299.064 27.7657C297.352 29.181 295.234 29.6914 293.051 29.6914C291.43 29.6914 289.945 29.2172 288.688 28.1772C287.808 27.4495 287.019 26.4248 286.322 25.52C285.093 23.9238 283.947 22.2629 282.825 20.5924ZM306.027 27.8648C306.1 27.8762 306.21 27.8743 306.254 27.8743H306.903V29.4324H301.66V27.8743H302.311C302.65 27.8743 302.984 27.8114 303.264 27.6095C303.616 27.3562 304.06 26.301 304.225 25.8876L314.016 1.20956H315.375L325.004 25.1791L325 25.2457C325.028 25.3505 325.114 25.5276 325.152 25.6172C325.314 25.9886 325.487 26.3543 325.66 26.72C325.999 27.4248 326.478 27.8743 327.291 27.8743H327.942V29.4324H320.452V27.8743H321.102C321.141 27.8743 321.243 27.8743 321.3 27.8629V27.861C321.3 27.5753 321.083 27.0324 320.964 26.741C320.889 26.6324 320.834 26.5143 320.794 26.3905L320.781 26.3543L320.773 26.3181C320.771 26.3086 320.769 26.2972 320.768 26.2876L317.131 17.2248H310.2L306.393 26.8343C306.307 27.0533 306.079 27.6057 306.027 27.8648ZM336.425 3.76383H330.44C330.24 3.76383 329.742 3.76001 329.475 3.80763C329.475 3.81144 329.475 3.81717 329.475 3.82098C329.475 3.98098 329.542 4.21145 329.59 4.36383L329.841 5.20193H328.267L326.501 0.729553H328.111L328.292 1.08191C328.343 1.18286 328.513 1.48193 328.6 1.53526C328.798 1.61717 329.477 1.61525 329.711 1.61525H347.318C347.715 1.61525 348.258 1.61715 348.64 1.51048C348.762 1.47619 348.84 1.27619 348.876 1.17143L349.025 0.729553H350.705L348.937 5.20193H347.407L347.609 4.39429C347.654 4.21143 347.662 3.9962 347.662 3.80382C347.479 3.76572 347.215 3.76383 347.064 3.76383H340.781V25.8191C340.781 26.2419 340.789 27.1048 340.952 27.4819C340.998 27.581 341.082 27.7371 341.192 27.7771C341.46 27.8743 341.944 27.8743 342.233 27.8743H342.882V29.4324H334.396V27.9181L335.004 27.8762C335.222 27.861 336.086 27.7714 336.225 27.6C336.402 27.3753 336.425 26.4934 336.425 26.2019V3.76383ZM367.588 1.17333C371.211 1.17333 374.52 2.21715 377.169 4.75811C379.706 7.19239 380.912 10.2134 380.912 13.7181C380.912 18.0648 379.597 21.9638 376.638 25.1905C373.611 28.4933 369.685 29.8762 365.266 29.8762C361.607 29.8762 358.362 28.7219 355.786 26.0705C353.323 23.5391 352.088 20.4819 352.088 16.9505C352.088 14.4095 352.77 11.96 353.847 9.6724C355.038 7.13716 356.838 5.09907 359.165 3.55049C361.692 1.86669 364.575 1.17333 367.588 1.17333ZM397.793 20.5924C397.746 20.5333 397.708 20.4686 397.679 20.4L395.257 16.6838L393.249 16.7467H391.757V26.2381C391.757 26.621 391.78 27.3276 391.982 27.6591C392.094 27.8457 392.792 27.8743 392.985 27.8743H393.635V29.4324H385.519V27.9029L386.14 27.8762C386.326 27.8667 387.08 27.8038 387.186 27.6362C387.379 27.3314 387.399 26.3734 387.399 26.0038V4.92191C387.399 4.44382 387.358 3.90478 387.181 3.45716C387.084 3.21335 386.376 3.17716 386.161 3.17336L385.519 3.16382V1.61525H393.673C395.07 1.61525 396.478 1.61143 397.87 1.74667C398.872 1.84572 399.835 2.18477 400.722 2.65715C401.681 3.16572 402.469 3.88192 403.004 4.83621C403.567 5.84192 403.769 6.99429 403.769 8.13525C403.769 9.66667 403.287 11.0743 402.444 12.3429C401.645 13.5467 400.589 14.5105 399.38 15.2838L400.897 17.6152L400.907 17.6286C401.238 18.2076 401.622 18.7581 401.999 19.3086C402.69 20.3162 403.403 21.3124 404.119 22.3048C404.987 23.5086 406.714 25.8629 407.984 26.5676C408.745 26.9886 409.58 27.2857 410.458 27.2857C411.39 27.2857 412.389 26.8153 413.175 26.3448L413.889 25.9181L414.368 27.4895L414.033 27.7657C412.321 29.181 410.203 29.6914 408.02 29.6914C406.399 29.6914 404.914 29.2172 403.656 28.1772C402.777 27.4495 401.988 26.4248 401.291 25.52C400.062 23.9238 398.918 22.2629 397.793 20.5924ZM426.071 1.61525V3.24764L425.352 3.16954C425.063 3.13907 424.751 3.20572 424.477 3.29905C424.412 3.32001 424.159 3.42097 424.136 3.49716C424.014 3.92001 424.045 4.81525 424.045 5.2781V25.6419C424.045 26.0114 424.028 27.1448 424.144 27.4553C424.185 27.5772 424.298 27.6667 424.41 27.7372C424.595 27.8591 425.198 27.8743 425.422 27.8743H426.071V29.4324H417.698V27.8743H418.347C418.537 27.8743 419.35 27.84 419.462 27.6686C419.668 27.341 419.687 26.0895 419.687 25.68V5.5105C419.687 5.02669 419.666 3.77334 419.42 3.37334C419.283 3.14858 418.61 3.16002 418.385 3.17336L417.698 3.21335V1.61525H426.071ZM436.872 16.4514V23.9886C436.872 24.6876 436.897 25.7676 437.166 26.4114C437.299 26.7314 437.491 26.9676 437.833 27.0629C438.465 27.2362 439.264 27.2476 439.919 27.2476H444.612C445.211 27.2476 445.811 27.2419 446.41 27.2114C446.701 27.1943 447.036 27.1829 447.32 27.1124C447.605 27.0419 447.851 26.901 448.052 26.6876C448.321 26.4038 448.492 25.4248 448.551 25.0362L448.633 24.4819H450.1V29.4324H430.636V27.9124L431.247 27.8762C431.58 27.8572 432.056 27.8 432.341 27.6229C432.486 27.5048 432.515 26.8114 432.515 26.6324V5.17336C432.515 4.68764 432.503 3.81715 432.315 3.37334C432.235 3.20572 431.447 3.17336 431.285 3.17336H430.636V1.61525H448.627V6.56763H447.219L447.091 6.08381C446.994 5.72191 446.578 4.20193 446.361 3.98288C446.184 3.82859 445.238 3.80001 444.992 3.80001H436.872V14.4134H444.366C444.583 14.4134 445.363 14.3962 445.535 14.2991C445.586 14.2629 445.594 14.2115 445.598 14.1505L445.622 13.5276H447.152V17.3372H445.7L445.605 16.7981C445.597 16.7524 445.559 16.5772 445.518 16.5543C445.342 16.461 444.787 16.4514 444.581 16.4514H436.872ZM161.684 3.40192C161.547 3.2343 160.704 3.17907 160.489 3.17336L159.856 3.1581V1.61525H168.267V3.17336H167.616C167.365 3.17336 166.794 3.19239 166.581 3.32572C166.482 3.38858 166.366 3.48191 166.326 3.58667C166.229 3.86286 166.24 4.60953 166.24 4.92191V23.541C166.24 24.4991 166.383 25.7562 167.161 26.4191C168.002 27.1391 169.618 27.2476 170.682 27.2476H173.919C174.937 27.2476 176.139 27.0743 176.872 26.2953C177.686 25.4324 177.865 23.5162 177.911 22.3772L177.936 21.7524H179.468V29.4324H159.892V27.8743H160.543C160.775 27.8743 161.5 27.8495 161.656 27.6534C161.856 27.4019 161.882 26.7657 161.882 26.4533V4.73716C161.882 4.36763 161.86 3.71811 161.684 3.40192ZM6.74583 3.46858V13.8229H9.31405C10.6744 13.8229 12.3447 13.5752 13.0859 12.2762C13.6834 11.2286 14.0693 10.0876 14.0693 8.87429C14.0693 7.83239 13.8885 6.76953 13.3355 5.87048C12.8309 5.04762 12.0994 4.47811 11.2185 4.09907C9.95268 3.5524 8.16638 3.46858 6.79644 3.46858H6.74583ZM6.74583 15.6762V23.4114C6.74583 24 6.71233 24.9524 6.85886 25.5067C6.94145 25.8172 7.13765 26.1124 7.3405 26.36C7.62899 26.7105 8.16277 26.9391 8.58484 27.0781C9.43679 27.36 10.5376 27.3962 11.4326 27.3962C12.7194 27.3962 14.4037 27.2076 15.315 26.1867C16.2122 25.181 16.4271 23.6915 16.4271 22.3905C16.4271 20.8934 16.1951 19.2876 15.3945 17.9943C14.8906 17.1791 14.1704 16.3124 13.2122 16.0457C12.6094 15.8781 11.9395 15.8191 11.3167 15.7715C10.2685 15.6934 9.21681 15.6762 8.16562 15.6762H6.74583ZM56.4188 15.1867H61.6833L59.0489 8.55621L56.4188 15.1867ZM192.174 15.1867H197.437L194.803 8.55621L192.174 15.1867ZM218.954 3.46858V13.8229H221.521C222.882 13.8229 224.552 13.5752 225.293 12.2762C225.89 11.2286 226.276 10.0876 226.276 8.87429C226.276 7.83239 226.096 6.76953 225.544 5.87048C225.038 5.04762 224.307 4.47811 223.426 4.09907C222.16 3.5524 220.373 3.46858 219.003 3.46858H218.954ZM218.954 15.6762V23.4114C218.954 24 218.92 24.9524 219.066 25.5067C219.15 25.8172 219.344 26.1124 219.548 26.36C219.837 26.7105 220.37 26.9391 220.792 27.0781C221.643 27.36 222.745 27.3962 223.641 27.3962C224.927 27.3962 226.611 27.2076 227.523 26.1867C228.419 25.181 228.634 23.6915 228.634 22.3905C228.634 20.8934 228.402 19.2876 227.601 17.9943C227.097 17.1791 226.377 16.3124 225.418 16.0457C224.817 15.8781 224.147 15.8191 223.525 15.7715C222.476 15.6934 221.424 15.6762 220.373 15.6762H218.954ZM252.514 27.1734C254.322 27.1734 256.021 26.6572 257.599 25.7848C259.256 24.8686 260.581 23.6 261.548 21.9657C262.455 20.4362 262.986 18.7753 262.986 16.9867C262.986 14.5734 262.353 12.3429 261.034 10.3162C259.728 8.3105 258.02 6.72762 255.919 5.58477C254.172 4.63239 252.174 3.87429 250.162 3.87429C247.551 3.87429 245.344 4.92763 243.449 6.68382C241.428 8.55429 240.446 10.8591 240.446 13.6133C240.446 17.2762 241.732 20.4153 244.198 23.1067C246.427 25.5372 249.144 27.1734 252.514 27.1734ZM276.788 3.65336V14.7448H278.908C280.425 14.7448 282.178 14.4876 283.312 13.3867C284.315 12.4134 284.699 11.1752 284.699 9.80191C284.699 8.23048 284.174 6.82669 283.268 5.55812C282.155 3.99812 280.1 3.65336 278.313 3.65336H276.788ZM311.011 15.1867H316.277L313.641 8.55621L311.011 15.1867ZM367.483 27.1734C369.291 27.1734 370.992 26.6572 372.568 25.7848C374.225 24.8686 375.55 23.6 376.516 21.9657C377.424 20.4362 377.955 18.7753 377.955 16.9867C377.955 14.5734 377.321 12.3429 376.003 10.3162C374.697 8.3105 372.988 6.72762 370.888 5.58477C369.141 4.63239 367.143 3.87429 365.131 3.87429C362.52 3.87429 360.313 4.92763 358.417 6.68382C356.397 8.55429 355.415 10.8591 355.415 13.6133C355.415 17.2762 356.701 20.4153 359.167 23.1067C361.396 25.5372 364.113 27.1734 367.483 27.1734ZM391.757 3.65336V14.7448H393.877C395.394 14.7448 397.146 14.4876 398.281 13.3867C399.283 12.4134 399.67 11.1752 399.67 9.80191C399.67 8.23048 399.143 6.82669 398.237 5.55812C397.124 3.99812 395.068 3.65336 393.28 3.65336H391.757ZM160.371 43.1295H164.016L170.05 56.64L175.555 43.0686H179.74L170.988 63.7829C170.09 65.9086 168.444 67.0438 166.132 67.0438C165.235 67.0438 164.371 66.861 163.557 66.4876C162.491 66.0019 161.401 64.8743 160.626 64.0152L160.046 63.3733L162.874 61.0476L163.403 61.5695C163.734 61.8952 164.904 63.0553 165.311 63.2248C165.57 63.3295 165.839 63.3886 166.116 63.3886C166.48 63.3886 166.819 63.3086 167.115 63.0914C167.441 62.8533 167.841 62.0305 168.078 61.4857L160.371 44.4781V46.8438H155.525V66.4972H151.662V46.8438H146.813V43.0686H160.371V43.1295ZM146.565 48.0781L143.557 50.3905L143.055 49.7352C142.215 48.64 141.186 47.7695 139.943 47.1714C138.682 46.5638 137.33 46.2972 135.932 46.2972C134.36 46.2972 132.889 46.6743 131.519 47.4457C130.204 48.1867 129.152 49.1924 128.394 50.501C127.623 51.8343 127.285 53.2972 127.285 54.8324C127.285 57.2057 128.061 59.2324 129.761 60.8952C131.507 62.6019 133.641 63.3276 136.069 63.3276C138.925 63.3276 141.226 62.1981 143.083 60.0362L143.589 59.4476L146.596 61.7295L146.075 62.3905C144.9 63.8838 143.435 65.0343 141.713 65.8343C139.892 66.68 137.934 67.0438 135.932 67.0438C132.151 67.0438 128.8 65.8457 126.299 62.9505C124.257 60.5886 123.33 57.7714 123.33 54.6571C123.33 51.2857 124.511 48.3752 126.927 46.021C129.407 43.6076 132.457 42.5219 135.901 42.5219C137.939 42.5219 139.926 42.9048 141.764 43.8038C143.502 44.6552 144.957 45.861 146.094 47.4286L146.565 48.0781ZM181.285 62.8133L189.82 43.0686H191.645L200.659 62.8133H202.636V69.741H198.803V66.4972H183.091V69.741H179.26V62.8133H181.285ZM203.803 43.0686H207.635V66.4972H203.803V43.0686ZM221.135 56.3676H221.114L213.281 66.4972H208.522L216.41 56.2953C215.369 56.2 214.313 55.9962 213.405 55.5943C212.254 55.0838 211.312 54.3105 210.644 53.2381C209.974 52.1581 209.683 50.9486 209.683 49.6819C209.683 48.1543 210.107 46.7429 211.089 45.5638C212.037 44.4267 213.256 43.7143 214.697 43.3867C215.338 43.2419 216.05 43.1848 216.705 43.1467C217.732 43.0819 218.769 43.0686 219.799 43.0686H224.967V66.4972H221.135V56.3676ZM240.901 50.1581L248.471 43.0686H253.824L242.412 53.6991L254.455 66.4972H249.283L240.901 57.5829V66.4972H237.038V43.0686H240.901V50.1581ZM258.773 56.3676V66.4972H254.941V43.0686H260.103C261.159 43.0686 262.225 43.0819 263.281 43.1505C263.949 43.1943 264.688 43.2534 265.338 43.4153C266.729 43.7619 267.902 44.4762 268.819 45.581C269.795 46.7581 270.197 48.181 270.197 49.6972C270.197 51.2057 269.816 52.6305 268.853 53.8095C267.919 54.9543 266.659 55.6438 265.232 55.9905C264.511 56.1638 263.704 56.2305 262.965 56.2781C261.816 56.3505 260.655 56.3676 259.502 56.3676H258.773ZM286.499 59.3391H278.117L274.737 66.4972H270.488L281.538 43.0686H283.133L294.054 66.4972H289.898L286.499 59.3391ZM317.523 48.0781L314.513 50.3905L314.01 49.7352C313.171 48.64 312.141 47.7695 310.899 47.1714C309.635 46.5638 308.286 46.2972 306.889 46.2972C305.316 46.2972 303.845 46.6743 302.474 47.4457C301.16 48.1867 300.107 49.1924 299.35 50.501C298.579 51.8343 298.238 53.2972 298.238 54.8324C298.238 57.2057 299.017 59.2324 300.718 60.8952C302.465 62.6019 304.596 63.3276 307.024 63.3276C309.881 63.3276 312.181 62.1981 314.039 60.0362L314.545 59.4476L317.55 61.7295L317.03 62.3905C315.856 63.8838 314.393 65.0343 312.669 65.8343C310.847 66.68 308.889 67.0438 306.889 67.0438C303.106 67.0438 299.755 65.8457 297.255 62.9505C295.213 60.5886 294.286 57.7714 294.286 54.6571C294.286 51.2857 295.468 48.3752 297.885 46.021C300.362 43.6076 303.413 42.5219 306.857 42.5219C308.895 42.5219 310.882 42.9048 312.72 43.8038C314.457 44.6552 315.915 45.861 317.049 47.4286L317.523 48.0781ZM334.798 51.1695L321.645 66.4972H319.951V43.0686H323.784V58.6286L337.024 43.0686H338.722V66.4972H334.798V51.1695ZM185.53 62.8133H196.28L190.769 50.5067L185.53 62.8133ZM221.135 46.8438H218.113C217.312 46.8438 215.964 46.8667 215.213 47.1676C214.714 47.3676 214.33 47.6895 214.033 48.1391C213.723 48.6038 213.574 49.1124 213.574 49.6724C213.574 50.2476 213.715 50.7752 214.027 51.261C214.333 51.7372 214.754 52.0572 215.277 52.2667C216.088 52.5905 217.334 52.6286 218.196 52.6229L221.135 52.5981V46.8438ZM258.773 46.8438V52.6019L261.633 52.6362C262.491 52.6362 263.799 52.6019 264.604 52.2857C265.125 52.08 265.54 51.76 265.846 51.2895C266.158 50.8057 266.303 50.2781 266.303 49.7029C266.303 49.1371 266.155 48.621 265.846 48.1467C265.553 47.6953 265.167 47.3676 264.667 47.1695C263.913 46.8686 262.598 46.8438 261.795 46.8438H258.773ZM282.334 50.4L279.896 55.5638H284.76L282.334 50.4Z" fill="url(#paint0_linear_1_2)"/>
</g>
</g>
</g>
<defs>
<linearGradient id="paint0_linear_1_2" x1="-87" y1="41.0001" x2="540.924" y2="-19.9046" gradientUnits="userSpaceOnUse">
<stop offset="0.104167" stop-color="#728391" stop-opacity="0.8"/>
<stop offset="0.651042" stop-color="#425F77" stop-opacity="0.54"/>
</linearGradient>
<clipPath id="clip0_1_2">
<rect width="451" height="30" fill="white"/>
</clipPath>
</defs>
</svg>
