<?xml version="1.0" standalone="no"?>
<!DOCTYPE svg PUBLIC "-//W3C//DTD SVG 20010904//EN"
 "http://www.w3.org/TR/2001/REC-SVG-20010904/DTD/svg10.dtd">
<svg version="1.0" xmlns="http://www.w3.org/2000/svg"
 width="928.000000pt" height="928.000000pt" viewBox="0 0 928.000000 928.000000"
 preserveAspectRatio="xMidYMid meet">
<metadata>
Created by potrace 1.14, written by Peter Selinger 2001-2017
</metadata>
<g transform="translate(0.000000,928.000000) scale(0.100000,-0.100000)"
fill="#000000" stroke="none">
<path d="M1331 9120 c-4 -3 -7 -128 -6 -278 0 -303 -4 -285 70 -295 22 -3 72
-13 110 -21 39 -8 86 -17 105 -20 19 -3 60 -10 90 -16 30 -6 66 -13 80 -16 14
-2 36 -7 50 -10 14 -3 43 -8 65 -11 21 -2 43 -7 47 -9 4 -3 22 -7 40 -9 18 -2
113 -20 211 -40 98 -19 196 -37 218 -40 22 -3 48 -9 57 -14 9 -4 22 -6 28 -4
8 3 12 -987 12 -3771 0 -3507 -1 -3776 -16 -3780 -10 -3 -33 -7 -52 -10 -19
-3 -46 -8 -60 -11 -14 -3 -50 -10 -80 -16 -30 -5 -100 -19 -155 -30 -55 -10
-111 -21 -125 -24 -14 -3 -36 -7 -50 -10 -14 -3 -38 -8 -55 -10 -16 -3 -50 -9
-75 -14 -25 -5 -62 -12 -84 -15 -21 -4 -41 -8 -45 -10 -3 -2 -27 -7 -53 -10
-26 -4 -53 -8 -60 -11 -7 -2 -29 -6 -48 -9 -19 -3 -46 -8 -60 -11 -14 -3 -41
-8 -60 -11 -19 -3 -51 -10 -70 -15 l-35 -8 0 -278 0 -278 2010 0 c1819 0 2140
3 2285 20 25 3 63 8 85 11 137 16 163 20 175 24 3 1 9 2 14 1 5 -1 32 3 60 9
64 13 85 17 127 24 19 3 49 10 68 15 18 6 36 10 40 9 3 -1 13 1 21 4 18 7 134
38 160 43 95 18 468 167 540 216 14 9 29 17 33 17 17 1 214 128 306 198 54 40
133 107 177 148 43 42 82 76 87 76 4 0 7 3 7 8 0 4 16 25 36 47 30 34 52 60
119 142 127 156 263 414 337 638 11 33 21 67 23 75 1 8 10 40 19 70 8 30 18
66 20 80 33 170 39 208 53 350 10 99 10 438 0 520 -4 36 -10 83 -13 105 -2 22
-7 47 -10 55 -3 8 -8 31 -10 50 -8 56 -32 142 -76 268 -157 448 -510 892 -938
1177 -25 16 -47 33 -50 36 -3 3 -48 32 -100 64 -131 80 -322 174 -460 225
-116 43 -137 50 -155 56 -5 2 -68 19 -139 37 -118 31 -136 42 -89 52 18 4 109
40 193 77 67 29 220 106 265 133 22 14 54 32 70 41 17 9 58 36 93 60 35 24 67
44 71 44 5 0 11 7 15 15 3 8 10 15 16 15 6 0 17 6 24 13 7 6 33 28 57 47 80
63 273 264 337 350 34 47 66 90 70 95 60 76 201 365 228 465 2 8 13 47 24 85
22 74 26 90 36 145 4 19 8 44 10 55 27 138 33 215 33 410 0 144 -2 197 -14
295 -8 74 -31 205 -35 205 -1 0 -4 15 -6 32 -6 38 -66 227 -90 281 -74 169
-195 373 -280 473 -49 57 -237 243 -283 279 -24 19 -48 40 -55 45 -18 16 -89
69 -107 80 -9 6 -41 26 -70 46 -91 61 -152 95 -270 152 -152 73 -182 86 -232
102 -23 7 -66 22 -95 33 -29 11 -56 21 -60 21 -4 1 -32 9 -62 18 -30 9 -59 17
-65 19 -30 7 -65 15 -105 24 -25 5 -55 12 -67 15 -46 11 -59 13 -103 19 -25 3
-56 8 -70 11 -84 16 -235 32 -395 41 -117 7 -3825 11 -3834 4z m3574 -724
c158 -11 274 -23 319 -32 22 -4 111 -21 161 -30 17 -3 57 -12 90 -21 33 -8 68
-16 77 -18 34 -7 203 -68 216 -77 6 -6 12 -8 12 -5 0 6 155 -71 195 -96 219
-138 341 -265 447 -467 24 -46 57 -127 59 -145 0 -5 5 -18 11 -28 5 -10 11
-27 14 -38 2 -10 6 -28 9 -39 3 -11 7 -30 10 -42 2 -13 7 -34 10 -48 14 -64
27 -206 26 -285 -1 -73 -1 -82 0 -117 1 -56 -18 -288 -26 -318 -2 -8 -7 -35
-10 -60 -16 -115 -73 -320 -123 -439 -40 -96 -107 -228 -128 -252 -8 -8 -14
-19 -14 -23 0 -25 -190 -251 -265 -315 -16 -15 -36 -33 -45 -41 -8 -8 -31 -26
-50 -40 -19 -13 -37 -27 -40 -30 -8 -9 -92 -63 -150 -97 -79 -46 -190 -98
-202 -95 -5 1 -8 -2 -8 -8 0 -5 -8 -10 -17 -10 -10 0 -30 -6 -44 -14 -24 -12
-187 -67 -216 -72 -7 -1 -43 -10 -80 -19 -37 -10 -79 -19 -93 -21 -14 -3 -47
-9 -75 -14 -27 -5 -68 -12 -90 -15 -22 -3 -53 -8 -70 -10 -16 -3 -57 -8 -90
-10 -33 -3 -85 -8 -115 -11 -113 -11 -1100 -10 -1101 0 0 6 -2 755 -2 1664 -1
1094 1 1656 8 1660 6 4 18 7 28 8 9 1 18 2 20 3 1 1 16 4 32 6 17 1 55 6 85
10 99 12 209 21 350 30 47 3 107 8 133 11 27 2 94 6 149 9 56 3 102 6 104 7 5
6 399 0 489 -6z m25 -4110 c159 -10 256 -19 355 -33 17 -2 44 -6 60 -8 49 -6
107 -15 161 -26 28 -5 63 -12 79 -15 16 -3 32 -7 35 -9 4 -2 22 -7 41 -10 36
-6 199 -51 234 -65 11 -5 50 -19 86 -33 116 -45 320 -149 327 -168 2 -5 8 -9
13 -9 18 0 136 -97 215 -177 189 -189 318 -456 369 -763 9 -52 18 -106 20
-120 21 -132 20 -527 -1 -633 -2 -12 -6 -40 -9 -62 -13 -101 -68 -318 -101
-395 -107 -248 -204 -393 -363 -548 -107 -105 -311 -252 -349 -252 -6 0 -12
-4 -12 -9 0 -14 -274 -129 -350 -146 -8 -2 -60 -15 -115 -29 -55 -14 -120 -28
-144 -31 -23 -3 -57 -8 -75 -11 -181 -32 -700 -37 -1116 -10 -41 3 -118 8
-170 11 -107 7 -137 10 -230 19 -36 4 -83 9 -105 11 -71 7 -142 16 -161 19
-11 2 -40 6 -65 10 -33 5 -48 12 -51 24 -6 29 -2 3457 4 3468 7 11 1235 11
1418 0z"/>
</g>
</svg>
